# xmcd
#
# Track frame offsets: 
#        150
#        14700
#        23775
#        38250
#        50700
#        61725
#        79950
#        94500
#        114000
#        131025
#        145425
#        156450
#        168075
#        182625
#        195975
#        213300
#        224850
#        239625
#
# Disc length: 3359 seconds
#
# Revision: 1
# Processed by: cddbd v1.5.2PL0 Copyright (c) Steve Scherf et al.
# Submitted via: ExactAudioCopyFreeDBPlugin 1.0
#
DISCID=fd0d1d12
DTITLE=Various Artist - The Young Ones
DYEAR=2015
DGENRE=Pop
TTITLE0=Cliff Richard and The Shadows - The Young Ones
TTITLE1=The Everly Brothers - Crying In The Rain (Single Version) (200
TTITLE1=6 Remastered Version)
TTITLE2=Keith Carradine - I'm Easy [LP Version]
TTITLE3=Seals and Crofts - My Fair Share [The Love Them From "One On One
TTITLE3="]
TTITLE4=The Monkees - I Wanna Be Free
TTITLE5=Lobo - I'd Love You To Want Me
TTITLE6=Leblanc and Carr - Falling
TTITLE7=Laura Allan - Slip and Slide
TTITLE8=Sergio Mendes - If You Leave Me Now
TTITLE9=The Seekers - The Carnival Is Over (Stereo) [2009 Remastered V
TTITLE9=ersion]
TTITLE10=Peter And Gordon - I Go To Pieces
TTITLE11=The Cascades - Rhythm Of The Rain
TTITLE12=Herman's Hermits - My Sentimental Friend
TTITLE13=The Shadows - Apache (2004 Remastered Version)
TTITLE14=Gordon Lightfoot - If You Could Read My Mind
TTITLE15=Dan Seals - Lullaby
TTITLE16=Judy Collins - Both Sides Now
TTITLE17=Otis Redding - (Sittin' On) The Dock Of The Bay
EXTD=Warner Music 2015
EXTT0=
EXTT1=
EXTT2=
EXTT3=
EXTT4=
EXTT5=
EXTT6=
EXTT7=
EXTT8=
EXTT9=
EXTT10=
EXTT11=
EXTT12=
EXTT13=
EXTT14=
EXTT15=
EXTT16=
EXTT17=
PLAYORDER=
